<svg width="1920" height="1357" viewBox="0 0 1920 1357" fill="none" xmlns="http://www.w3.org/2000/svg">
<g clip-path="url(#clip0_123_178)">
<rect width="1920" height="1357" fill="url(#paint0_linear_123_178)"/>
<g opacity="0.4">
<path d="M788.253 166.349L662.733 58.3565L693.218 -103.045" stroke="white" stroke-width="5.73134" stroke-linecap="round" stroke-linejoin="round"/>
<path d="M818.934 4.85193L788.446 166.252L944.144 111.944L974.631 -49.4567" stroke="white" stroke-width="5.73134" stroke-linecap="round" stroke-linejoin="round"/>
<path d="M693.267 -105.152L848.625 -158.507L975.085 -51.3555L819.727 1.99911L693.267 -105.152Z" stroke="white" stroke-width="5.73134" stroke-linejoin="round"/>
</g>
<g opacity="0.22">
<path d="M1660.61 269.932L1596.05 310.235L1529.73 273.94" stroke="white" stroke-width="5.73134" stroke-linecap="round" stroke-linejoin="round"/>
<path d="M1594.49 233.32L1660.81 269.616L1658.61 193.028L1592.28 156.732" stroke="white" stroke-width="5.73134" stroke-linecap="round" stroke-linejoin="round"/>
<path d="M1528.93 273.778L1527.09 197.305L1591.55 156.377L1593.39 232.85L1528.93 273.778Z" stroke="white" stroke-width="5.73134" stroke-linejoin="round"/>
</g>
<g opacity="0.4">
<path d="M924.891 1257.34L972.591 1335.84L929.064 1415.44" stroke="white" stroke-width="5.73134" stroke-linecap="round" stroke-linejoin="round"/>
<path d="M881.286 1336.94L924.815 1257.34L833.596 1258.97L790.068 1338.57" stroke="white" stroke-width="5.73134" stroke-linecap="round" stroke-linejoin="round"/>
<path d="M928.715 1416.58L837.834 1417.76L789.495 1339.54L880.376 1338.35L928.715 1416.58Z" stroke="white" stroke-width="5.73134" stroke-linejoin="round"/>
</g>
<g opacity="0.4">
<path d="M2181.14 1183.17L1891 1247.05L1694.3 1026.74" stroke="white" stroke-width="5.73134" stroke-linecap="round" stroke-linejoin="round"/>
<path d="M1984.98 962.373L2181.67 1182.69L2273.5 897.951L2076.81 677.631" stroke="white" stroke-width="5.73134" stroke-linecap="round" stroke-linejoin="round"/>
<path d="M1691.35 1024.72L1784.26 741.26L2074.49 675.036L1981.59 958.501L1691.35 1024.72Z" stroke="white" stroke-width="5.73134" stroke-linejoin="round"/>
</g>
<g opacity="0.32">
<path d="M-230.63 412.947L63.6164 371.578L242.809 606.419" stroke="white" stroke-width="5.73134" stroke-linecap="round" stroke-linejoin="round"/>
<path d="M-51.8664 648.083L-231.054 413.239L-344.539 690.108L-165.351 924.952" stroke="white" stroke-width="5.73134" stroke-linecap="round" stroke-linejoin="round"/>
<path d="M245.678 608.699L131.261 884.123L-163.158 927.799L-48.7411 652.375L245.678 608.699Z" stroke="white" stroke-width="5.73134" stroke-linejoin="round"/>
</g>
<rect x="440.909" y="377.174" width="1012" height="598.672" rx="22.9254" fill="white"/>
<rect x="474.361" y="410.902" width="945.093" height="522.784" fill="url(#paint1_linear_123_178)"/>
<path fill-rule="evenodd" clip-rule="evenodd" d="M671.632 495.222H623.159C619.508 495.222 616.549 498.195 616.549 501.862C616.549 505.529 619.508 508.502 623.159 508.502H671.632C675.283 508.502 678.242 505.529 678.242 501.862C678.242 498.195 675.283 495.222 671.632 495.222ZM693.665 533.115H623.159C619.508 533.115 616.549 536.088 616.549 539.755C616.549 543.422 619.508 546.395 623.159 546.395H693.665C697.316 546.395 700.275 543.422 700.275 539.755C700.275 536.088 697.316 533.115 693.665 533.115ZM737.732 533.115H715.699C712.048 533.115 709.089 536.088 709.089 539.755C709.089 543.422 712.048 546.395 715.699 546.395H737.732C741.383 546.395 744.342 543.422 744.342 539.755C744.342 536.088 741.383 533.115 737.732 533.115ZM623.159 608.858H671.632C675.283 608.858 678.242 611.831 678.242 615.498C678.242 619.165 675.283 622.138 671.632 622.138H623.159C619.508 622.138 616.549 619.165 616.549 615.498C616.549 611.831 619.508 608.858 623.159 608.858ZM671.632 646.707H623.159C619.508 646.707 616.549 649.68 616.549 653.347C616.549 657.014 619.508 659.987 623.159 659.987H671.632C675.283 659.987 678.242 657.014 678.242 653.347C678.242 649.68 675.283 646.707 671.632 646.707ZM623.159 836.086H671.632C675.283 836.086 678.242 839.059 678.242 842.726C678.242 846.393 675.283 849.366 671.632 849.366H623.159C619.508 849.366 616.549 846.393 616.549 842.726C616.549 839.059 619.508 836.086 623.159 836.086ZM645.195 570.964H733.328C736.979 570.964 739.938 573.937 739.938 577.605C739.938 581.272 736.979 584.245 733.328 584.245H645.195C641.544 584.245 638.585 581.272 638.585 577.605C638.585 573.937 641.544 570.964 645.195 570.964ZM865.525 570.477H759.765C756.115 570.477 753.155 573.45 753.155 577.118C753.155 580.785 756.115 583.758 759.765 583.758H865.525C869.175 583.758 872.135 580.785 872.135 577.118C872.135 573.45 869.175 570.477 865.525 570.477ZM887.555 570.477H922.809C926.459 570.477 929.419 573.45 929.419 577.118C929.419 580.785 926.459 583.758 922.809 583.758H887.555C883.905 583.758 880.945 580.785 880.945 577.118C880.945 573.45 883.905 570.477 887.555 570.477ZM891.964 533.115H764.171C760.52 533.115 757.561 536.088 757.561 539.755C757.561 543.422 760.52 546.395 764.171 546.395H891.964C895.614 546.395 898.574 543.422 898.574 539.755C898.574 536.088 895.614 533.115 891.964 533.115ZM913.996 533.115C917.646 533.115 920.606 536.088 920.606 539.755C920.606 543.422 917.646 546.395 913.996 546.395C910.345 546.395 907.386 543.422 907.386 539.755C907.386 536.088 910.345 533.115 913.996 533.115ZM693.665 684.6H623.159C619.508 684.6 616.549 687.573 616.549 691.24C616.549 694.908 619.508 697.881 623.159 697.881H693.665C697.316 697.881 700.275 694.908 700.275 691.24C700.275 687.573 697.316 684.6 693.665 684.6ZM909.592 685.574H997.725C1001.38 685.574 1004.34 688.547 1004.34 692.214C1004.34 695.882 1001.38 698.855 997.725 698.855H909.592C905.942 698.855 902.982 695.882 902.982 692.214C902.982 688.547 905.942 685.574 909.592 685.574ZM693.663 720.989H654.004C650.353 720.989 647.394 723.962 647.394 727.629C647.394 731.296 650.353 734.269 654.004 734.269H693.663C697.314 734.269 700.273 731.296 700.273 727.629C700.273 723.962 697.314 720.989 693.663 720.989ZM720.103 720.989H733.323C736.974 720.989 739.933 723.962 739.933 727.629C739.933 731.296 736.974 734.269 733.323 734.269H720.103C716.453 734.269 713.493 731.296 713.493 727.629C713.493 723.962 716.453 720.989 720.103 720.989ZM759.764 720.989C763.415 720.989 766.374 723.962 766.374 727.629C766.374 731.296 763.415 734.269 759.764 734.269C756.114 734.269 753.154 731.296 753.154 727.629C753.154 723.962 756.114 720.989 759.764 720.989ZM786.205 720.989H891.964C895.615 720.989 898.574 723.962 898.574 727.629C898.574 731.296 895.615 734.269 891.964 734.269H786.205C782.554 734.269 779.595 731.296 779.595 727.629C779.595 723.962 782.554 720.989 786.205 720.989ZM874.337 685.574H887.557C891.207 685.574 894.167 688.547 894.167 692.214C894.167 695.882 891.207 698.855 887.557 698.855H874.337C870.686 698.855 867.727 695.882 867.727 692.214C867.727 688.547 870.686 685.574 874.337 685.574ZM847.898 685.574H720.105C716.454 685.574 713.495 688.547 713.495 692.214C713.495 695.882 716.454 698.855 720.105 698.855H847.898C851.548 698.855 854.508 695.882 854.508 692.214C854.508 688.547 851.548 685.574 847.898 685.574ZM1019.76 685.574C1023.41 685.574 1026.37 688.547 1026.37 692.214C1026.37 695.882 1023.41 698.855 1019.76 698.855C1016.11 698.855 1013.15 695.882 1013.15 692.214C1013.15 688.547 1016.11 685.574 1019.76 685.574ZM693.665 798.192H623.159C619.508 798.192 616.549 801.165 616.549 804.832C616.549 808.499 619.508 811.472 623.159 811.472H693.665C697.316 811.472 700.275 808.499 700.275 804.832C700.275 801.165 697.316 798.192 693.665 798.192ZM676.037 760.343H654.004C650.353 760.343 647.394 763.316 647.394 766.983C647.394 770.65 650.353 773.623 654.004 773.623H676.037C679.687 773.623 682.647 770.65 682.647 766.983C682.647 763.316 679.687 760.343 676.037 760.343ZM830.267 760.829H742.133C738.483 760.829 735.523 763.802 735.523 767.47C735.523 771.137 738.483 774.11 742.133 774.11H830.267C833.917 774.11 836.877 771.137 836.877 767.47C836.877 763.802 833.917 760.829 830.267 760.829ZM706.885 760.829H720.105C723.755 760.829 726.715 763.802 726.715 767.47C726.715 771.137 723.755 774.11 720.105 774.11H706.885C703.234 774.11 700.275 771.137 700.275 767.47C700.275 763.802 703.234 760.829 706.885 760.829ZM858.916 767.47C858.916 763.802 855.957 760.829 852.306 760.829C848.656 760.829 845.696 763.802 845.696 767.47C845.696 771.137 848.656 774.11 852.306 774.11C855.957 774.11 858.916 771.137 858.916 767.47Z" fill="url(#paint2_linear_123_178)"/>
<path d="M382.364 975.847H1511.46V1011.95C1511.46 1024.61 1501.19 1034.87 1488.53 1034.87H405.29C392.628 1034.87 382.364 1024.61 382.364 1011.95V975.847Z" fill="white"/>
<path d="M821.876 975.847H1089.51C1089.51 989.817 1078.19 1001.14 1064.22 1001.14H847.172C833.201 1001.14 821.876 989.817 821.876 975.847Z" fill="#D9D9D9"/>
<g filter="url(#filter0_d_123_178)">
<rect x="1264" y="719" width="293.825" height="394.969" rx="22.9254" fill="url(#paint3_linear_123_178)"/>
</g>
<g filter="url(#filter1_d_123_178)">
<ellipse cx="440.879" cy="415.177" rx="137.119" ry="138.239" fill="url(#paint4_linear_123_178)"/>
</g>
<path d="M428.545 483.71L425.281 462.974C423.213 462.206 421.036 461.164 418.751 459.847C416.466 458.531 414.453 457.159 412.711 455.733L393.45 464.62L378.269 437.63L395.898 424.629C395.68 423.642 395.544 422.517 395.49 421.256C395.436 419.994 395.408 418.869 395.408 417.882C395.408 416.895 395.436 415.77 395.49 414.508C395.544 413.247 395.68 412.122 395.898 411.135L378.269 398.134L393.45 371.144L412.711 380.031C414.453 378.605 416.466 377.233 418.751 375.917C421.036 374.6 423.213 373.613 425.281 372.954L428.545 352.054H458.581L461.846 372.79C463.913 373.558 466.117 374.573 468.457 375.834C470.796 377.096 472.782 378.495 474.415 380.031L493.677 371.144L508.858 398.134L491.228 410.805C491.446 411.903 491.582 413.082 491.636 414.344C491.691 415.605 491.718 416.785 491.718 417.882C491.718 418.979 491.691 420.131 491.636 421.338C491.582 422.545 491.446 423.697 491.228 424.794L508.858 437.63L493.677 464.62L474.415 455.733C472.674 457.159 470.688 458.558 468.457 459.93C466.226 461.301 464.022 462.316 461.846 462.974L458.581 483.71H428.545ZM443.563 439.276C449.44 439.276 454.446 437.192 458.581 433.022C462.716 428.853 464.784 423.807 464.784 417.882C464.784 411.957 462.716 406.911 458.581 402.742C454.446 398.572 449.44 396.488 443.563 396.488C437.687 396.488 432.681 398.572 428.545 402.742C424.41 406.911 422.342 411.957 422.342 417.882C422.342 423.807 424.41 428.853 428.545 433.022C432.681 437.192 437.687 439.276 443.563 439.276ZM443.563 429.402C440.407 429.402 437.714 428.277 435.483 426.028C433.252 423.779 432.137 421.064 432.137 417.882C432.137 414.7 433.252 411.985 435.483 409.736C437.714 407.487 440.407 406.362 443.563 406.362C446.719 406.362 449.412 407.487 451.643 409.736C453.874 411.985 454.99 414.7 454.99 417.882C454.99 421.064 453.874 423.779 451.643 426.028C449.412 428.277 446.719 429.402 443.563 429.402ZM436.381 473.836H450.745L453.031 455.404C456.622 454.526 460.023 453.155 463.233 451.29C466.443 449.425 469.354 447.175 471.966 444.542L489.269 452.113L495.799 440.264L480.454 428.908C480.89 427.043 481.243 425.205 481.516 423.395C481.788 421.585 481.924 419.747 481.924 417.882C481.924 416.017 481.815 414.179 481.597 412.369C481.38 410.559 480.999 408.721 480.454 406.856L495.799 395.5L489.269 383.651L471.966 391.222C469.463 388.369 466.634 385.983 463.478 384.063C460.322 382.143 456.84 380.909 453.031 380.36L450.745 361.928H436.381L434.095 380.36C430.395 381.128 426.94 382.444 423.73 384.31C420.52 386.175 417.663 388.479 415.16 391.222L397.857 383.651L391.327 395.5L406.672 406.856C406.236 408.721 405.883 410.559 405.611 412.369C405.339 414.179 405.203 416.017 405.203 417.882C405.203 419.747 405.339 421.585 405.611 423.395C405.883 425.205 406.236 427.043 406.672 428.908L391.327 440.264L397.857 452.113L415.16 444.542C417.772 447.175 420.683 449.425 423.893 451.29C427.103 453.155 430.504 454.526 434.095 455.404L436.381 473.836Z" fill="white"/>
<g filter="url(#filter2_d_123_178)">
<path fill-rule="evenodd" clip-rule="evenodd" d="M1431.38 775.032L1431.37 775H1431.36L1431.38 775.032ZM1431.38 775.032C1435.89 791.804 1434.64 800.202 1410.83 819.391C1406.73 822.697 1403.22 825.446 1400.23 827.793C1385.84 839.074 1383.31 841.058 1383.31 850.986C1383.31 862.979 1401.59 881.979 1410.42 887.382C1410.42 887.382 1408.97 883.986 1405.69 878.784C1405.03 877.727 1404.08 876.521 1403.01 875.158L1403.01 875.158L1403.01 875.158C1398.81 869.816 1392.72 862.061 1394.19 851.387C1395.26 843.642 1405.42 834.658 1415.26 825.966C1422.43 819.624 1429.43 813.437 1432.59 808C1440.08 795.111 1438.35 784.225 1431.38 775.032ZM1411.66 854.598C1411.66 834.393 1437.11 824.006 1457.66 817.4H1457.67C1457.67 817.4 1423.58 833.344 1423.58 849.797C1423.58 856.281 1426.38 859.036 1429.29 861.9C1432.23 864.784 1435.27 867.779 1435.69 874.802C1436.51 888.802 1417.62 895.794 1417.62 895.794C1417.62 895.794 1424.8 892.599 1424.8 881.794C1424.8 877.23 1422.45 875.275 1419.74 873.015C1416.04 869.925 1411.66 866.268 1411.66 854.598ZM1384.96 888.987C1364.42 888.987 1350.25 896.38 1350.25 900.579C1350.25 904.777 1375.51 908.775 1402.82 906.984C1430.14 905.178 1444.51 902.987 1455.4 896.581C1455.4 896.581 1436.1 900.98 1421.31 900.98C1418.39 900.98 1414.39 901.081 1409.88 901.194L1409.87 901.194C1391.51 901.657 1364.45 902.338 1365.24 897.384C1366.22 891.21 1390.71 888.987 1390.71 888.987H1384.96ZM1369.98 923.978C1363.61 919.98 1366.48 916.183 1377.37 912.386C1368.31 921.215 1386.38 921.194 1405.66 921.171C1406.63 921.17 1407.61 921.169 1408.59 921.169C1428.92 921.169 1439.6 917.372 1439.6 917.372L1447.4 923.376C1447.4 923.376 1423.37 929.179 1406.12 929.179C1388.87 929.179 1376.35 927.975 1369.98 923.978ZM1382.3 934.983C1371.62 938.579 1369.37 943.379 1378.81 947.778C1388.26 952.177 1406.33 952.98 1419.68 951.174C1433.03 949.368 1444.33 945.371 1444.33 945.371C1444.33 945.371 1437.04 942.669 1433.64 939.366C1433.64 939.366 1418.03 942.561 1403.26 942.561C1388.49 942.561 1376.57 940.571 1382.31 934.971L1382.3 934.983ZM1480.04 888.585C1467.1 883.384 1461.97 890.191 1461.97 890.191H1461.98C1467.94 888.987 1480.05 888.585 1480.67 902.384C1481.27 916.183 1454.99 927.389 1454.99 927.389C1454.99 927.389 1469.15 924.58 1480.86 916.183C1492.56 907.787 1492.97 893.787 1480.04 888.585ZM1356.82 962.967C1397.28 970.159 1458.89 962.766 1469.78 960.173C1480.67 957.564 1476.68 951.931 1476.68 951.931C1479.34 953.767 1480.53 955.774 1479.44 957.966C1473.48 969.959 1416.79 971.965 1400.16 971.965C1383.53 971.965 1333 970.977 1333 962.18C1333 953.382 1356.84 948.118 1365.73 950.109C1348.99 954.771 1339.07 959.818 1356.82 962.982V962.967ZM1447.08 980.315C1375.77 986.474 1361.44 975.824 1361.44 975.824H1361.45C1416.9 981.38 1443.55 976.719 1459.72 973.725C1475.89 970.715 1488.98 963.522 1488.98 963.522C1487.44 971.163 1475.58 978.062 1447.08 980.315ZM1360.07 991.212H1348.23C1348.27 992.622 1348.31 994.007 1348.34 995.371C1348.56 1003.37 1348.76 1010.68 1348.76 1018.22C1348.76 1021.45 1348.7 1024.95 1348.64 1028.59C1348.57 1032.54 1348.5 1036.65 1348.5 1040.77C1348.5 1045.99 1347.28 1050.41 1344.79 1054.34C1347.57 1055.67 1350.4 1056.9 1353.27 1058.05C1357.52 1053.03 1359.95 1046.81 1359.82 1039C1359.65 1032.59 1359.65 1024.37 1359.65 1018.22C1359.65 1009.06 1359.82 1000.13 1360.07 991.212ZM1432.61 1028.24L1439.79 1007.54H1439.82L1449.32 1008.05C1446.89 1013.27 1444.31 1019.15 1442.31 1024.12L1432.21 1049.6L1423.66 1050.45L1407.06 1008.56L1418.98 1007.13C1420.26 1011.91 1421.74 1016.88 1423.46 1021.59L1425.79 1028.24C1427.25 1032.19 1428.13 1035.56 1428.73 1039.26H1429.5C1430.36 1035.65 1431.31 1032.02 1432.61 1028.24ZM1473.08 1007.11C1468.25 1007.11 1462.71 1008.13 1455.37 1012.08L1457.28 1018.64L1457.97 1019.06C1462.73 1015.69 1466.96 1014.09 1470.24 1014.09C1474.65 1014.09 1477.93 1016.94 1477.93 1021.5V1025.18C1459 1027.96 1454.34 1033.69 1454.34 1040.33C1454.34 1047.32 1459.45 1051.1 1465.14 1051.1C1469.89 1051.1 1474.03 1048.32 1477.76 1045.3L1478.53 1045.47C1479.31 1049.25 1481.86 1050.68 1484.7 1050.9C1485.94 1050.24 1487.17 1049.56 1488.38 1048.86V1020.21C1488.38 1011.39 1482.94 1007.08 1473.08 1007.08V1007.11ZM1477.91 1040.19C1474.81 1042.8 1472.21 1044.14 1469.88 1044.14C1466.95 1044.14 1464.52 1042.29 1464.52 1038.67C1464.52 1034.8 1467.2 1031.94 1477.91 1030.43V1040.19ZM1369.22 1012.1C1376.57 1008.13 1382.1 1007.13 1386.93 1007.13C1396.79 1007.13 1402.22 1011.42 1402.22 1020.25V1050.68C1401.36 1050.87 1400.52 1050.96 1399.72 1050.96C1396.43 1051.05 1393.25 1049.79 1392.38 1045.5L1391.6 1045.33C1387.87 1048.35 1383.74 1051.13 1378.98 1051.13C1373.29 1051.13 1368.19 1047.35 1368.19 1040.36C1368.19 1033.72 1372.85 1027.99 1391.77 1025.22V1021.51C1391.77 1016.96 1388.49 1014.1 1384.09 1014.1C1380.81 1014.1 1376.57 1015.71 1371.82 1019.07L1371.12 1018.66L1369.22 1012.1ZM1386.93 1007.13C1386.93 1007.13 1386.94 1007.13 1386.94 1007.13H1386.92C1386.93 1007.13 1386.93 1007.13 1386.93 1007.13ZM1383.74 1044.14C1386.07 1044.14 1388.67 1042.8 1391.77 1040.19V1030.43C1381.06 1031.95 1378.38 1034.8 1378.38 1038.67C1378.38 1042.29 1380.81 1044.14 1383.74 1044.14Z" fill="white"/>
</g>
</g>
<defs>
<filter id="filter0_d_123_178" x="1069.13" y="547.06" width="683.557" height="784.7" filterUnits="userSpaceOnUse" color-interpolation-filters="sRGB">
<feFlood flood-opacity="0" result="BackgroundImageFix"/>
<feColorMatrix in="SourceAlpha" type="matrix" values="0 0 0 0 0 0 0 0 0 0 0 0 0 0 0 0 0 0 127 0" result="hardAlpha"/>
<feOffset dy="22.9254"/>
<feGaussianBlur stdDeviation="97.4329"/>
<feComposite in2="hardAlpha" operator="out"/>
<feColorMatrix type="matrix" values="0 0 0 0 0 0 0 0 0 0 0 0 0 0 0 0 0 0 0.25 0"/>
<feBlend mode="normal" in2="BackgroundImageFix" result="effect1_dropShadow_123_178"/>
<feBlend mode="normal" in="SourceGraphic" in2="effect1_dropShadow_123_178" result="shape"/>
</filter>
<filter id="filter1_d_123_178" x="108.895" y="104.997" width="663.969" height="666.21" filterUnits="userSpaceOnUse" color-interpolation-filters="sRGB">
<feFlood flood-opacity="0" result="BackgroundImageFix"/>
<feColorMatrix in="SourceAlpha" type="matrix" values="0 0 0 0 0 0 0 0 0 0 0 0 0 0 0 0 0 0 127 0" result="hardAlpha"/>
<feOffset dy="22.9254"/>
<feGaussianBlur stdDeviation="97.4329"/>
<feComposite in2="hardAlpha" operator="out"/>
<feColorMatrix type="matrix" values="0 0 0 0 0 0 0 0 0 0 0 0 0 0 0 0 0 0 0.25 0"/>
<feBlend mode="normal" in2="BackgroundImageFix" result="effect1_dropShadow_123_178"/>
<feBlend mode="normal" in="SourceGraphic" in2="effect1_dropShadow_123_178" result="shape"/>
</filter>
<filter id="filter2_d_123_178" x="1138.13" y="603.06" width="546.42" height="672.777" filterUnits="userSpaceOnUse" color-interpolation-filters="sRGB">
<feFlood flood-opacity="0" result="BackgroundImageFix"/>
<feColorMatrix in="SourceAlpha" type="matrix" values="0 0 0 0 0 0 0 0 0 0 0 0 0 0 0 0 0 0 127 0" result="hardAlpha"/>
<feOffset dy="22.9254"/>
<feGaussianBlur stdDeviation="97.4329"/>
<feComposite in2="hardAlpha" operator="out"/>
<feColorMatrix type="matrix" values="0 0 0 0 0 0 0 0 0 0 0 0 0 0 0 0 0 0 0.25 0"/>
<feBlend mode="normal" in2="BackgroundImageFix" result="effect1_dropShadow_123_178"/>
<feBlend mode="normal" in="SourceGraphic" in2="effect1_dropShadow_123_178" result="shape"/>
</filter>
<linearGradient id="paint0_linear_123_178" x1="0" y1="563.5" x2="1920" y2="563.5" gradientUnits="userSpaceOnUse">
<stop stop-color="#F926AE"/>
<stop offset="1" stop-color="#8244FF"/>
</linearGradient>
<linearGradient id="paint1_linear_123_178" x1="943.12" y1="423.012" x2="1227.01" y2="932.919" gradientUnits="userSpaceOnUse">
<stop stop-color="#250E55"/>
<stop offset="1" stop-color="#0E1227"/>
</linearGradient>
<linearGradient id="paint2_linear_123_178" x1="624.855" y1="491.77" x2="1029.87" y2="908.662" gradientUnits="userSpaceOnUse">
<stop stop-color="white"/>
<stop offset="1" stop-color="white" stop-opacity="0"/>
</linearGradient>
<linearGradient id="paint3_linear_123_178" x1="1410.91" y1="719" x2="1410.91" y2="1113.97" gradientUnits="userSpaceOnUse">
<stop stop-color="#FF5924"/>
<stop offset="1" stop-color="#FFA724"/>
</linearGradient>
<linearGradient id="paint4_linear_123_178" x1="440.879" y1="276.938" x2="440.879" y2="553.416" gradientUnits="userSpaceOnUse">
<stop stop-color="#FF5924"/>
<stop offset="1" stop-color="#FFA724"/>
</linearGradient>
<clipPath id="clip0_123_178">
<rect width="1920" height="1357" fill="white"/>
</clipPath>
</defs>
</svg>
