<svg width="1920" height="1357" viewBox="0 0 1920 1357" fill="none" xmlns="http://www.w3.org/2000/svg">
<g clip-path="url(#clip0_123_511)">
<rect width="1920" height="1357" fill="url(#paint0_linear_123_511)"/>
<g style="mix-blend-mode:soft-light" filter="url(#filter0_f_123_511)">
<ellipse cx="1264.83" cy="825.55" rx="247.763" ry="405.91" transform="rotate(-44.9888 1264.83 825.55)" fill="#F9F9F9" fill-opacity="0.5"/>
</g>
<g style="mix-blend-mode:soft-light" filter="url(#filter1_f_123_511)">
<path d="M928.501 533.468C740.08 689.366 72.898 923.596 -67.4148 754.012C-207.728 584.427 471.038 439.931 659.459 284.034C758.442 -59.3347 875.295 -225.454 1015.61 -55.8698C1155.92 113.715 1116.92 377.57 928.501 533.468Z" fill="white" fill-opacity="0.5"/>
</g>
<g opacity="0.51">
<path d="M804.04 1952.33C839.599 1921.72 855.706 1871.26 853.756 1805.48C851.808 1739.72 831.816 1659.13 795.757 1568.98C723.651 1388.72 587.547 1170.85 404.477 958.207C221.408 745.563 26.1944 578.585 -141.352 480.484C-225.138 431.426 -301.864 399.677 -366.596 387.976C-431.359 376.27 -483.65 384.698 -519.209 415.311C-554.768 445.924 -570.875 496.382 -568.925 562.165C-566.977 627.918 -546.985 708.51 -510.927 798.658C-438.821 978.925 -302.716 1196.79 -119.647 1409.44C63.4228 1622.08 258.637 1789.06 426.183 1887.16C509.969 1936.22 586.694 1967.96 651.427 1979.67C716.19 1991.37 768.481 1982.94 804.04 1952.33Z" stroke="url(#paint1_linear_123_511)" stroke-width="5.73134"/>
<g filter="url(#filter2_f_123_511)">
<path d="M804.04 1952.33C839.599 1921.72 855.706 1871.26 853.756 1805.48C851.808 1739.72 831.816 1659.13 795.757 1568.98C723.651 1388.72 587.547 1170.85 404.477 958.207C221.408 745.563 26.1944 578.585 -141.352 480.484C-225.138 431.426 -301.864 399.677 -366.596 387.976C-431.359 376.27 -483.65 384.698 -519.209 415.311C-554.768 445.924 -570.875 496.382 -568.925 562.165C-566.977 627.918 -546.985 708.51 -510.927 798.658C-438.821 978.925 -302.716 1196.79 -119.647 1409.44C63.4228 1622.08 258.637 1789.06 426.183 1887.16C509.969 1936.22 586.694 1967.96 651.427 1979.67C716.19 1991.37 768.481 1982.94 804.04 1952.33Z" stroke="url(#paint2_linear_123_511)" stroke-width="5.73134"/>
</g>
</g>
<g opacity="0.11">
<path d="M1317.79 -657.439C1280.19 -629.372 1260.61 -580.156 1257.98 -514.396C1255.35 -448.667 1269.69 -366.88 1299.4 -274.444C1358.79 -89.5988 1479.42 137.203 1647.26 362.061C1815.1 586.92 1998.23 767.066 2158.55 876.579C2238.73 931.344 2313.06 968.351 2376.82 984.524C2440.61 1000.71 2493.36 995.934 2530.97 967.867C2568.57 939.8 2588.14 890.585 2590.77 824.825C2593.4 759.096 2579.06 677.309 2549.36 584.872C2489.96 400.027 2369.33 173.226 2201.49 -51.6326C2033.65 -276.491 1850.52 -456.637 1690.2 -566.15C1610.03 -620.915 1535.69 -657.923 1471.93 -674.096C1408.14 -690.277 1355.39 -685.505 1317.79 -657.439Z" stroke="url(#paint3_linear_123_511)" stroke-width="5.73134"/>
<g filter="url(#filter3_f_123_511)">
<path d="M1317.79 -657.439C1280.19 -629.372 1260.61 -580.156 1257.98 -514.396C1255.35 -448.667 1269.69 -366.88 1299.4 -274.444C1358.79 -89.5988 1479.42 137.203 1647.26 362.061C1815.1 586.92 1998.23 767.066 2158.55 876.579C2238.73 931.344 2313.06 968.351 2376.82 984.524C2440.61 1000.71 2493.36 995.934 2530.97 967.867C2568.57 939.8 2588.14 890.585 2590.77 824.825C2593.4 759.096 2579.06 677.309 2549.36 584.872C2489.96 400.027 2369.33 173.226 2201.49 -51.6326C2033.65 -276.491 1850.52 -456.637 1690.2 -566.15C1610.03 -620.915 1535.69 -657.923 1471.93 -674.096C1408.14 -690.277 1355.39 -685.505 1317.79 -657.439Z" stroke="url(#paint4_linear_123_511)" stroke-width="5.73134"/>
</g>
</g>
<g opacity="0.21">
<path d="M356.711 1422.02C390.756 1462.8 449.577 1487.03 527.566 1495.51C605.536 1503.99 702.222 1496.67 811.238 1474.7C1029.24 1430.77 1295.88 1328.42 1559.39 1178.01C1822.9 1027.59 2033.17 857.71 2160.14 704.724C2223.64 628.221 2266.2 556.06 2284.26 492.766C2302.33 429.457 2295.79 375.384 2261.74 334.598C2227.7 293.813 2168.87 269.582 2090.89 261.102C2012.92 252.623 1916.23 259.95 1807.21 281.919C1589.21 325.85 1322.57 428.196 1059.06 578.611C795.551 729.025 585.284 898.906 458.31 1051.89C394.816 1128.4 352.249 1200.56 334.189 1263.85C316.125 1327.16 322.665 1381.23 356.711 1422.02Z" stroke="url(#paint5_linear_123_511)" stroke-width="5.73134"/>
<g filter="url(#filter4_f_123_511)">
<path d="M356.711 1422.02C390.756 1462.8 449.577 1487.03 527.566 1495.51C605.536 1503.99 702.222 1496.67 811.238 1474.7C1029.24 1430.77 1295.88 1328.42 1559.39 1178.01C1822.9 1027.59 2033.17 857.71 2160.14 704.724C2223.64 628.221 2266.2 556.06 2284.26 492.766C2302.33 429.457 2295.79 375.384 2261.74 334.598C2227.7 293.813 2168.87 269.582 2090.89 261.102C2012.92 252.623 1916.23 259.95 1807.21 281.919C1589.21 325.85 1322.57 428.196 1059.06 578.611C795.551 729.025 585.284 898.906 458.31 1051.89C394.816 1128.4 352.249 1200.56 334.189 1263.85C316.125 1327.16 322.665 1381.23 356.711 1422.02Z" stroke="url(#paint6_linear_123_511)" stroke-width="5.73134"/>
</g>
</g>
<g opacity="0.18">
<path d="M-165.665 760.034C-142.851 790.598 -102.8 806.575 -49.1144 808.721C4.54025 810.867 71.3428 799.16 146.886 774.886C297.943 726.345 483.321 627.755 667.127 490.556C850.934 353.357 998.173 203.672 1087.67 72.6566C1132.42 7.1366 1162.65 -53.5784 1175.85 -105.628C1189.06 -157.707 1185.13 -200.648 1162.32 -231.212C1139.5 -261.776 1099.45 -277.753 1045.77 -279.899C992.112 -282.044 925.309 -270.338 849.766 -246.064C698.709 -197.523 513.331 -98.9326 329.524 38.2662C145.718 175.465 -1.52135 325.15 -91.0168 456.166C-135.773 521.686 -165.994 582.401 -179.196 634.45C-192.406 686.529 -188.479 729.47 -165.665 760.034Z" stroke="url(#paint7_linear_123_511)" stroke-width="5.73134"/>
<g filter="url(#filter5_f_123_511)">
<path d="M-165.665 760.034C-142.851 790.598 -102.8 806.575 -49.1144 808.721C4.54025 810.867 71.3428 799.16 146.886 774.886C297.943 726.345 483.321 627.755 667.127 490.556C850.934 353.357 998.173 203.672 1087.67 72.6566C1132.42 7.1366 1162.65 -53.5784 1175.85 -105.628C1189.06 -157.707 1185.13 -200.648 1162.32 -231.212C1139.5 -261.776 1099.45 -277.753 1045.77 -279.899C992.112 -282.044 925.309 -270.338 849.766 -246.064C698.709 -197.523 513.331 -98.9326 329.524 38.2662C145.718 175.465 -1.52135 325.15 -91.0168 456.166C-135.773 521.686 -165.994 582.401 -179.196 634.45C-192.406 686.529 -188.479 729.47 -165.665 760.034Z" stroke="url(#paint8_linear_123_511)" stroke-width="5.73134"/>
</g>
</g>
<rect x="728" y="200.902" width="507.041" height="967.987" rx="52" fill="white"/>
<rect x="754" y="226" width="454" height="818" rx="32" fill="url(#paint9_linear_123_511)"/>
<circle cx="981.401" cy="1099.75" r="36.2172" fill="#D9D9D9"/>
<path fill-rule="evenodd" clip-rule="evenodd" d="M832.604 342.542H876.22C879.505 342.542 882.168 345.171 882.168 348.413C882.168 351.656 879.505 354.284 876.22 354.284H832.604C829.319 354.284 826.656 351.656 826.656 348.413C826.656 345.171 829.319 342.542 832.604 342.542ZM832.604 376.046H896.046C899.331 376.046 901.994 378.675 901.994 381.917C901.994 385.16 899.331 387.788 896.046 387.788H832.604C829.319 387.788 826.656 385.16 826.656 381.917C826.656 378.675 829.319 376.046 832.604 376.046ZM915.871 376.046H935.696C938.981 376.046 941.644 378.675 941.644 381.917C941.644 385.16 938.981 387.788 935.696 387.788H915.871C912.586 387.788 909.923 385.16 909.923 381.917C909.923 378.675 912.586 376.046 915.871 376.046ZM876.22 443.016H832.604C829.319 443.016 826.656 445.644 826.656 448.887C826.656 452.129 829.319 454.758 832.604 454.758H876.22C879.505 454.758 882.168 452.129 882.168 448.887C882.168 445.644 879.505 443.016 876.22 443.016ZM832.604 476.481H876.22C879.505 476.481 882.168 479.11 882.168 482.352C882.168 485.595 879.505 488.223 876.22 488.223H832.604C829.319 488.223 826.656 485.595 826.656 482.352C826.656 479.11 829.319 476.481 832.604 476.481ZM876.22 643.926H832.604C829.319 643.926 826.656 646.554 826.656 649.797C826.656 653.039 829.319 655.668 832.604 655.668H876.22C879.505 655.668 882.168 653.039 882.168 649.797C882.168 646.554 879.505 643.926 876.22 643.926ZM931.731 409.511H852.429C849.144 409.511 846.481 412.14 846.481 415.383C846.481 418.625 849.144 421.254 852.429 421.254H931.731C935.016 421.254 937.679 418.625 937.679 415.383C937.679 412.14 935.016 409.511 931.731 409.511ZM955.526 409.082H1050.69C1053.97 409.082 1056.64 411.71 1056.64 414.953C1056.64 418.195 1053.97 420.824 1050.69 420.824H955.526C952.241 420.824 949.578 418.195 949.578 414.953C949.578 411.71 952.241 409.082 955.526 409.082ZM1102.23 409.082H1070.51C1067.23 409.082 1064.56 411.71 1064.56 414.953C1064.56 418.195 1067.23 420.824 1070.51 420.824H1102.23C1105.52 420.824 1108.18 418.195 1108.18 414.953C1108.18 411.71 1105.52 409.082 1102.23 409.082ZM959.488 376.046H1074.48C1077.76 376.046 1080.42 378.675 1080.42 381.917C1080.42 385.16 1077.76 387.788 1074.48 387.788H959.488C956.203 387.788 953.541 385.16 953.541 381.917C953.541 378.675 956.203 376.046 959.488 376.046ZM896.046 509.987H832.604C829.319 509.987 826.656 512.615 826.656 515.858C826.656 519.1 829.319 521.729 832.604 521.729H896.046C899.331 521.729 901.994 519.1 901.994 515.858C901.994 512.615 899.331 509.987 896.046 509.987ZM896.046 542.16H860.36C857.075 542.16 854.412 544.789 854.412 548.031C854.412 551.274 857.075 553.902 860.36 553.902H896.046C899.331 553.902 901.993 551.274 901.993 548.031C901.993 544.789 899.331 542.16 896.046 542.16ZM919.834 542.16H931.729C935.014 542.16 937.677 544.789 937.677 548.031C937.677 551.274 935.014 553.902 931.729 553.902H919.834C916.549 553.902 913.886 551.274 913.886 548.031C913.886 544.789 916.549 542.16 919.834 542.16ZM955.526 542.16C958.811 542.16 961.473 544.789 961.473 548.031C961.473 551.274 958.811 553.902 955.526 553.902C952.241 553.902 949.578 551.274 949.578 548.031C949.578 544.789 952.241 542.16 955.526 542.16ZM1070.51 510.847H1058.62C1055.33 510.847 1052.67 513.476 1052.67 516.718C1052.67 519.961 1055.33 522.59 1058.62 522.59H1070.51C1073.8 522.59 1076.46 519.961 1076.46 516.718C1076.46 513.476 1073.8 510.847 1070.51 510.847ZM919.839 510.847H1034.83C1038.11 510.847 1040.78 513.476 1040.78 516.718C1040.78 519.961 1038.11 522.59 1034.83 522.59H919.839C916.554 522.59 913.891 519.961 913.891 516.718C913.891 513.476 916.554 510.847 919.839 510.847ZM896.046 610.421H832.604C829.319 610.421 826.656 613.05 826.656 616.292C826.656 619.535 829.319 622.164 832.604 622.164H896.046C899.331 622.164 901.994 619.535 901.994 616.292C901.994 613.05 899.331 610.421 896.046 610.421ZM880.185 576.956H860.36C857.075 576.956 854.412 579.585 854.412 582.827C854.412 586.07 857.075 588.698 860.36 588.698H880.185C883.47 588.698 886.133 586.07 886.133 582.827C886.133 579.585 883.47 576.956 880.185 576.956ZM1018.97 577.387H939.664C936.379 577.387 933.716 580.016 933.716 583.258C933.716 586.501 936.379 589.129 939.664 589.129H1018.97C1022.25 589.129 1024.91 586.501 1024.91 583.258C1024.91 580.016 1022.25 577.387 1018.97 577.387ZM907.94 577.387H919.835C923.12 577.387 925.783 580.016 925.783 583.258C925.783 586.501 923.12 589.129 919.835 589.129H907.94C904.655 589.129 901.992 586.501 901.992 583.258C901.992 580.016 904.655 577.387 907.94 577.387ZM1044.74 583.258C1044.74 580.016 1042.08 577.387 1038.79 577.387C1035.51 577.387 1032.84 580.016 1032.84 583.258C1032.84 586.501 1035.51 589.129 1038.79 589.129C1042.08 589.129 1044.74 586.501 1044.74 583.258Z" fill="url(#paint10_linear_123_511)"/>
<g opacity="0.9" filter="url(#filter6_f_123_511)">
<path d="M1467.94 1006.62C1452.47 1027.36 1425.21 1038.31 1388.39 1039.78C1351.59 1041.25 1305.71 1033.22 1253.76 1016.53C1149.88 983.15 1022.34 915.33 895.861 820.918C769.377 726.507 668.088 623.525 606.544 533.429C575.764 488.369 555.02 446.668 545.966 410.974C536.905 375.251 539.653 346.007 555.131 325.27C570.61 304.533 597.865 293.582 634.69 292.109C671.485 290.638 717.364 298.667 769.317 315.361C873.195 348.741 1000.73 416.561 1127.21 510.972C1253.7 605.384 1354.99 708.365 1416.53 798.462C1447.31 843.522 1468.06 885.223 1477.11 920.917C1486.17 956.64 1483.42 985.884 1467.94 1006.62Z" stroke="url(#paint11_linear_123_511)" stroke-width="5.73134"/>
</g>
<path d="M1467.94 1006.62C1452.47 1027.36 1425.21 1038.31 1388.39 1039.78C1351.59 1041.25 1305.71 1033.22 1253.76 1016.53C1149.88 983.15 1022.34 915.33 895.861 820.918C769.377 726.507 668.088 623.525 606.544 533.429C575.764 488.369 555.02 446.668 545.966 410.974C536.905 375.251 539.653 346.007 555.131 325.27C570.61 304.533 597.865 293.582 634.69 292.109C671.485 290.638 717.364 298.667 769.317 315.361C873.195 348.741 1000.73 416.561 1127.21 510.972C1253.7 605.384 1354.99 708.365 1416.53 798.462C1447.31 843.522 1468.06 885.223 1477.11 920.917C1486.17 956.64 1483.42 985.884 1467.94 1006.62Z" stroke="url(#paint12_linear_123_511)" stroke-width="5.73134"/>
<g filter="url(#filter7_f_123_511)">
<circle cx="668.194" cy="611.194" r="17.194" fill="white"/>
</g>
<circle cx="668.194" cy="611.194" r="17.194" fill="white"/>
<g filter="url(#filter8_d_123_511)">
<rect x="1118" y="590" width="274.237" height="274.24" rx="28.6567" fill="url(#paint13_linear_123_511)"/>
</g>
<g filter="url(#filter9_d_123_511)">
<rect x="1118" y="590" width="274.237" height="274.24" rx="28.6567" fill="url(#paint14_linear_123_511)"/>
</g>
<path fill-rule="evenodd" clip-rule="evenodd" d="M1284.14 676.629C1327.87 665.905 1351.07 690.331 1313.99 729.107V729.118C1325.97 742.676 1335.5 760.585 1328.33 772.915C1320.24 786.339 1300.53 784.732 1284.6 780.749C1271.01 829.779 1239.47 827.492 1226.1 778.506C1184.32 789.006 1158.08 766.165 1196.24 726.027C1164.32 689.729 1180.19 662.48 1225.64 674.386C1239.23 625.355 1270.77 627.643 1284.14 676.629ZM1306.98 721.676C1317.85 710.238 1331.21 691.135 1314.67 685.946C1308.14 683.859 1298.22 684.138 1286.6 686.727C1287.92 693.065 1288.96 699.783 1289.66 706.768C1295.99 711.566 1301.82 716.587 1306.98 721.676ZM1266.28 763.42C1270.02 765.049 1273.73 766.499 1277.37 767.749V767.76C1278.1 764.056 1278.72 760.195 1279.23 756.2C1274.96 758.789 1270.23 761.4 1266.28 763.42ZM1254.39 757.706C1258.62 755.765 1262.87 753.622 1267.1 751.29V751.279C1271.72 748.735 1276.18 746.057 1280.42 743.267C1281.03 733.247 1280.9 722.111 1280.12 712.47C1272.51 706.969 1263.78 701.59 1255.83 697.428C1246.98 701.501 1237.65 706.712 1229.81 711.867C1229.19 721.888 1229.33 733.024 1230.11 742.665C1237.72 748.166 1246.45 753.544 1254.39 757.706ZM1231.65 756.224C1232.13 759.511 1232.7 762.72 1233.34 765.819C1236.28 764.926 1239.24 763.911 1242.25 762.784C1238.51 760.63 1234.76 758.276 1231.65 756.224ZM1219.59 734.486C1219.5 732.354 1219.45 730.212 1219.41 728.058L1219.42 728.069C1219.38 725.079 1219.4 722.111 1219.48 719.176C1216.36 721.542 1213.41 723.963 1210.64 726.407C1213.43 729.129 1216.42 731.83 1219.59 734.486ZM1243.96 691.715C1240.21 690.086 1236.5 688.635 1232.87 687.385C1232.14 691.09 1231.51 694.951 1231.01 698.946C1235.28 696.357 1240 693.735 1243.96 691.715ZM1267.99 692.34C1271.73 694.505 1275.48 696.859 1278.6 698.912C1278.11 695.62 1277.54 692.407 1276.9 689.305C1273.96 690.197 1270.99 691.213 1267.99 692.34ZM1290.65 720.649C1290.74 722.78 1290.79 724.923 1290.83 727.076L1290.81 727.065C1290.86 730.056 1290.84 733.024 1290.76 735.958C1293.88 733.593 1296.83 731.171 1299.59 728.728C1296.81 726.005 1293.82 723.305 1290.65 720.649ZM1274.44 679.217C1266.42 651.812 1251.36 632.463 1237.38 670.547V670.558C1236.63 672.701 1235.93 674.933 1235.28 677.265C1241.99 679.53 1249.01 682.465 1256.12 685.979C1262.37 683.279 1268.52 681.014 1274.44 679.217ZM1222.26 684.274C1214.06 682.46 1196.94 678.673 1190.54 687.531C1186.66 693.947 1193.73 707.939 1203.61 718.964C1208.61 714.501 1214.19 710.127 1220.2 705.953C1220.83 698.432 1221.85 691.224 1223.22 684.484C1222.92 684.418 1222.6 684.348 1222.26 684.274ZM1203.25 733.47C1192.38 744.908 1179.01 764.011 1195.56 769.2C1202.09 771.297 1212.01 771.007 1223.63 768.419C1222.3 762.081 1221.27 755.363 1220.56 748.378C1214.23 743.58 1208.41 738.558 1203.25 733.47ZM1235.8 775.928C1243.82 803.334 1258.88 822.682 1272.86 784.598V784.587C1273.61 782.456 1274.31 780.213 1274.96 777.881C1268.25 775.616 1261.23 772.681 1254.11 769.166C1247.87 771.867 1241.72 774.132 1235.8 775.928ZM1287.09 770.676C1297.04 772.854 1313.18 776.388 1319.7 767.615C1323.58 761.199 1316.51 747.206 1306.63 736.182C1301.63 740.645 1296.05 745.019 1290.04 749.192C1289.41 756.713 1288.39 763.922 1287.02 770.661L1287.09 770.676ZM1262.44 715.255C1244.87 706.188 1232.3 730.073 1247.76 739.875C1265.26 748.951 1277.95 725.076 1262.44 715.255ZM1259.73 730.331C1255.64 736.474 1247.14 730.722 1250.47 724.79C1254.5 718.618 1263.08 724.407 1259.73 730.331Z" fill="white"/>
</g>
<defs>
<filter id="filter0_f_123_511" x="619.058" y="179.714" width="1291.55" height="1291.67" filterUnits="userSpaceOnUse" color-interpolation-filters="sRGB">
<feFlood flood-opacity="0" result="BackgroundImageFix"/>
<feBlend mode="normal" in="SourceGraphic" in2="BackgroundImageFix" result="shape"/>
<feGaussianBlur stdDeviation="154.746" result="effect1_foregroundBlur_123_511"/>
</filter>
<filter id="filter1_f_123_511" x="-372.93" y="-409.501" width="1759.34" height="1509.1" filterUnits="userSpaceOnUse" color-interpolation-filters="sRGB">
<feFlood flood-opacity="0" result="BackgroundImageFix"/>
<feBlend mode="normal" in="SourceGraphic" in2="BackgroundImageFix" result="shape"/>
<feGaussianBlur stdDeviation="143.284" result="effect1_foregroundBlur_123_511"/>
</filter>
<filter id="filter2_f_123_511" x="-594.874" y="357.131" width="1474.58" height="1653.38" filterUnits="userSpaceOnUse" color-interpolation-filters="sRGB">
<feFlood flood-opacity="0" result="BackgroundImageFix"/>
<feBlend mode="normal" in="SourceGraphic" in2="BackgroundImageFix" result="shape"/>
<feGaussianBlur stdDeviation="11.4627" result="effect1_foregroundBlur_123_511"/>
</filter>
<filter id="filter3_f_123_511" x="1231.88" y="-709.127" width="1384.99" height="1728.68" filterUnits="userSpaceOnUse" color-interpolation-filters="sRGB">
<feFlood flood-opacity="0" result="BackgroundImageFix"/>
<feBlend mode="normal" in="SourceGraphic" in2="BackgroundImageFix" result="shape"/>
<feGaussianBlur stdDeviation="11.4627" result="effect1_foregroundBlur_123_511"/>
</filter>
<filter id="filter4_f_123_511" x="298.365" y="232.124" width="2021.72" height="1292.37" filterUnits="userSpaceOnUse" color-interpolation-filters="sRGB">
<feFlood flood-opacity="0" result="BackgroundImageFix"/>
<feBlend mode="normal" in="SourceGraphic" in2="BackgroundImageFix" result="shape"/>
<feGaussianBlur stdDeviation="11.4627" result="effect1_foregroundBlur_123_511"/>
</filter>
<filter id="filter5_f_123_511" x="-212.525" y="-305.94" width="1421.7" height="1140.7" filterUnits="userSpaceOnUse" color-interpolation-filters="sRGB">
<feFlood flood-opacity="0" result="BackgroundImageFix"/>
<feBlend mode="normal" in="SourceGraphic" in2="BackgroundImageFix" result="shape"/>
<feGaussianBlur stdDeviation="11.4627" result="effect1_foregroundBlur_123_511"/>
</filter>
<filter id="filter6_f_123_511" x="515.012" y="266.147" width="993.051" height="799.597" filterUnits="userSpaceOnUse" color-interpolation-filters="sRGB">
<feFlood flood-opacity="0" result="BackgroundImageFix"/>
<feBlend mode="normal" in="SourceGraphic" in2="BackgroundImageFix" result="shape"/>
<feGaussianBlur stdDeviation="11.4627" result="effect1_foregroundBlur_123_511"/>
</filter>
<filter id="filter7_f_123_511" x="513.448" y="456.448" width="309.492" height="309.493" filterUnits="userSpaceOnUse" color-interpolation-filters="sRGB">
<feFlood flood-opacity="0" result="BackgroundImageFix"/>
<feBlend mode="normal" in="SourceGraphic" in2="BackgroundImageFix" result="shape"/>
<feGaussianBlur stdDeviation="68.7761" result="effect1_foregroundBlur_123_511"/>
</filter>
<filter id="filter8_d_123_511" x="923.134" y="418.06" width="663.969" height="663.972" filterUnits="userSpaceOnUse" color-interpolation-filters="sRGB">
<feFlood flood-opacity="0" result="BackgroundImageFix"/>
<feColorMatrix in="SourceAlpha" type="matrix" values="0 0 0 0 0 0 0 0 0 0 0 0 0 0 0 0 0 0 127 0" result="hardAlpha"/>
<feOffset dy="22.9254"/>
<feGaussianBlur stdDeviation="97.4328"/>
<feComposite in2="hardAlpha" operator="out"/>
<feColorMatrix type="matrix" values="0 0 0 0 0 0 0 0 0 0 0 0 0 0 0 0 0 0 0.15 0"/>
<feBlend mode="normal" in2="BackgroundImageFix" result="effect1_dropShadow_123_511"/>
<feBlend mode="normal" in="SourceGraphic" in2="effect1_dropShadow_123_511" result="shape"/>
</filter>
<filter id="filter9_d_123_511" x="923.134" y="418.06" width="663.969" height="663.972" filterUnits="userSpaceOnUse" color-interpolation-filters="sRGB">
<feFlood flood-opacity="0" result="BackgroundImageFix"/>
<feColorMatrix in="SourceAlpha" type="matrix" values="0 0 0 0 0 0 0 0 0 0 0 0 0 0 0 0 0 0 127 0" result="hardAlpha"/>
<feOffset dy="22.9254"/>
<feGaussianBlur stdDeviation="97.4328"/>
<feComposite in2="hardAlpha" operator="out"/>
<feColorMatrix type="matrix" values="0 0 0 0 0 0 0 0 0 0 0 0 0 0 0 0 0 0 0.15 0"/>
<feBlend mode="normal" in2="BackgroundImageFix" result="effect1_dropShadow_123_511"/>
<feBlend mode="normal" in="SourceGraphic" in2="effect1_dropShadow_123_511" result="shape"/>
</filter>
<linearGradient id="paint0_linear_123_511" x1="960" y1="0" x2="960" y2="1357" gradientUnits="userSpaceOnUse">
<stop stop-color="#FF5924"/>
<stop offset="1" stop-color="#FFA724"/>
</linearGradient>
<linearGradient id="paint1_linear_123_511" x1="-121.818" y1="1411.3" x2="406.649" y2="956.337" gradientUnits="userSpaceOnUse">
<stop stop-color="white" stop-opacity="0"/>
<stop offset="1" stop-color="white"/>
</linearGradient>
<linearGradient id="paint2_linear_123_511" x1="-121.818" y1="1411.3" x2="406.649" y2="956.337" gradientUnits="userSpaceOnUse">
<stop stop-color="white" stop-opacity="0"/>
<stop offset="1" stop-color="white"/>
</linearGradient>
<linearGradient id="paint3_linear_123_511" x1="2203.79" y1="-53.3468" x2="1644.97" y2="363.775" gradientUnits="userSpaceOnUse">
<stop stop-color="white" stop-opacity="0"/>
<stop offset="1" stop-color="white"/>
</linearGradient>
<linearGradient id="paint4_linear_123_511" x1="2203.79" y1="-53.3468" x2="1644.97" y2="363.775" gradientUnits="userSpaceOnUse">
<stop stop-color="white" stop-opacity="0"/>
<stop offset="1" stop-color="white"/>
</linearGradient>
<linearGradient id="paint5_linear_123_511" x1="1057.22" y1="576.411" x2="1441.04" y2="1248.81" gradientUnits="userSpaceOnUse">
<stop stop-color="white" stop-opacity="0"/>
<stop offset="1" stop-color="white"/>
</linearGradient>
<linearGradient id="paint6_linear_123_511" x1="1057.22" y1="576.411" x2="1441.04" y2="1248.81" gradientUnits="userSpaceOnUse">
<stop stop-color="white" stop-opacity="0"/>
<stop offset="1" stop-color="white"/>
</linearGradient>
<linearGradient id="paint7_linear_123_511" x1="500.206" y1="-32.9873" x2="668.841" y2="492.852" gradientUnits="userSpaceOnUse">
<stop stop-color="white" stop-opacity="0"/>
<stop offset="1" stop-color="white"/>
</linearGradient>
<linearGradient id="paint8_linear_123_511" x1="327.81" y1="35.9697" x2="668.841" y2="492.852" gradientUnits="userSpaceOnUse">
<stop stop-color="white" stop-opacity="0"/>
<stop offset="1" stop-color="white"/>
</linearGradient>
<linearGradient id="paint9_linear_123_511" x1="1315.83" y1="1326.4" x2="206.977" y2="912.016" gradientUnits="userSpaceOnUse">
<stop stop-color="#712DF8"/>
<stop offset="0.766426" stop-color="#3DA2FF"/>
</linearGradient>
<linearGradient id="paint10_linear_123_511" x1="967.418" y1="342.542" x2="1068.52" y2="714.863" gradientUnits="userSpaceOnUse">
<stop stop-color="white"/>
<stop offset="1" stop-color="white" stop-opacity="0"/>
</linearGradient>
<linearGradient id="paint11_linear_123_511" x1="1128.93" y1="508.676" x2="894.147" y2="823.215" gradientUnits="userSpaceOnUse">
<stop stop-color="white" stop-opacity="0"/>
<stop offset="1" stop-color="white"/>
</linearGradient>
<linearGradient id="paint12_linear_123_511" x1="1128.93" y1="508.676" x2="894.147" y2="823.215" gradientUnits="userSpaceOnUse">
<stop offset="0.185307" stop-color="white" stop-opacity="0"/>
<stop offset="1" stop-color="white"/>
</linearGradient>
<linearGradient id="paint13_linear_123_511" x1="1457.37" y1="958.918" x2="932.15" y2="605.272" gradientUnits="userSpaceOnUse">
<stop stop-color="#712DF8"/>
<stop offset="0.766426" stop-color="#FF3DBA"/>
<stop offset="0.96875" stop-color="#FFC7EB"/>
</linearGradient>
<linearGradient id="paint14_linear_123_511" x1="1457.37" y1="958.918" x2="932.15" y2="605.272" gradientUnits="userSpaceOnUse">
<stop stop-color="#712DF8"/>
<stop offset="0.766426" stop-color="#FF3DBA"/>
<stop offset="0.96875" stop-color="#FFC7EB"/>
</linearGradient>
<clipPath id="clip0_123_511">
<rect width="1920" height="1357" fill="white"/>
</clipPath>
</defs>
</svg>
